<svg width="17" height="23" viewBox="0 0 17 23" fill="none" xmlns="http://www.w3.org/2000/svg">
<path d="M3.77976 13.2626L0.66666 19.9016C0.569197 20.1022 0.672394 20.2284 0.999182 20.1653L3.53323 19.6149C3.58339 19.5973 3.63863 19.6015 3.6855 19.6266C3.73237 19.6517 3.76657 19.6953 3.77976 19.7468L4.92066 22.0859C5.02959 22.3381 5.15571 22.3897 5.25318 22.1891L8.56694 15.2405L3.77976 13.2626Z" fill="#DE7818"/>
<path d="M13.3771 13.2626L16.4902 19.9016C16.5933 20.1022 16.4844 20.2284 16.1576 20.1653L13.6236 19.6149C13.5734 19.5979 13.5185 19.6025 13.4718 19.6275C13.4251 19.6524 13.3908 19.6956 13.3771 19.7468L12.2362 22.0859C12.1272 22.3382 12.0068 22.3898 11.9036 22.1891L8.58987 15.2405L13.3771 13.2626Z" fill="#DE7818"/>
<path d="M7.6439 17.1726C7.6439 17.1783 7.63244 17.1726 7.62097 17.1726C5.88382 16.98 4.25518 16.232 2.97712 15.0399C2.97139 15.0341 2.95419 15.0284 2.95992 15.0227L3.10325 14.7188C3.10898 14.7073 3.12045 14.736 3.12618 14.7417C4.35308 15.8826 6.05582 16.5993 7.7987 16.8114C7.80443 16.8114 7.8159 16.8114 7.8159 16.8171L7.6439 17.1726Z" fill="#B35454"/>
<path d="M8.57841 16.8515C13.0841 16.8515 16.7367 13.1989 16.7367 8.69326C16.7367 4.18757 13.0841 0.534988 8.57841 0.534988C4.07272 0.534988 0.420135 4.18757 0.420135 8.69326C0.420135 13.1989 4.07272 16.8515 8.57841 16.8515Z" fill="#F0CD0A"/>
<path d="M8.57841 15.7278C12.4635 15.7278 15.613 12.5783 15.613 8.69325C15.613 4.80816 12.4635 1.65868 8.57841 1.65868C4.69332 1.65868 1.54383 4.80816 1.54383 8.69325C1.54383 12.5783 4.69332 15.7278 8.57841 15.7278Z" fill="#D2B309"/>
<path d="M8.77269 15.701C12.5311 15.701 15.5779 12.6542 15.5779 8.89576C15.5779 5.13733 12.5311 2.09052 8.77269 2.09052C5.01426 2.09052 1.96745 5.13733 1.96745 8.89576C1.96745 12.6542 5.01426 15.701 8.77269 15.701Z" fill="#E3C101"/>
<path fill-rule="evenodd" clip-rule="evenodd" d="M8.53981 12.0109H10.2123V5.43486H8.53981L6.86732 6.57416V8.01423L8.45323 6.94329H8.53981V12.0109Z" fill="#FFF2B5"/>
<path d="M10.499 2.93718C13.1098 3.56048 14.9734 5.86383 15.038 8.54718C15.1025 11.2305 13.3519 13.6209 10.7742 14.3691C12.3566 13.1594 13.4057 11.0955 13.4057 8.75059C13.4057 6.27387 12.2362 4.11248 10.499 2.93718Z" fill="white" fill-opacity="0.2"/>
<path d="M9.51291 17.1726C9.51864 17.1783 9.53011 17.1726 9.53584 17.1726C11.3189 16.949 12.9585 16.2324 14.1912 15.0513C14.1969 15.0456 14.2141 15.0399 14.2084 15.0341L14.065 14.7303C14.0593 14.7188 14.0478 14.7475 14.0421 14.7532C12.8152 15.8941 11.1067 16.5993 9.35811 16.8114C9.35238 16.8114 9.34091 16.8114 9.34091 16.8171L9.51291 17.1726Z" fill="#B35454"/>
</svg>
