<svg width="16" height="10" viewBox="0 0 16 10" fill="none" xmlns="http://www.w3.org/2000/svg">
<g clip-path="url(#clip0_202_467)">
<path fill-rule="evenodd" clip-rule="evenodd" d="M15.4033 8.8633C15.5446 8.71461 15.6234 8.51734 15.6234 8.31224C15.6234 8.10713 15.5446 7.90986 15.4033 7.76118L9.18212 1.31412C9.04503 1.16962 8.87995 1.05454 8.69694 0.975899C8.51394 0.897259 8.31684 0.856704 8.11765 0.856704C7.91846 0.856704 7.72136 0.897259 7.53835 0.975899C7.35535 1.05454 7.19027 1.16962 7.05318 1.31412L0.784942 7.80824C0.644826 7.95557 0.566066 8.15073 0.564668 8.35404C0.563269 8.55736 0.639337 8.75358 0.777413 8.90283C0.845586 8.97677 0.928209 9.03594 1.02017 9.07667C1.11213 9.11741 1.21147 9.13883 1.31205 9.13963C1.41262 9.14042 1.51229 9.12057 1.60488 9.08129C1.69747 9.04202 1.78102 8.98416 1.85035 8.9113L7.584 2.96777C7.65258 2.89558 7.73513 2.83809 7.82663 2.79881C7.91813 2.75953 8.01666 2.73927 8.11624 2.73927C8.21581 2.73927 8.31434 2.75953 8.40584 2.79881C8.49734 2.83809 8.57989 2.89558 8.64847 2.96777L14.3398 8.8633C14.4083 8.93546 14.4907 8.99293 14.5822 9.0322C14.6736 9.07147 14.772 9.09172 14.8715 9.09172C14.971 9.09172 15.0695 9.07147 15.1609 9.0322C15.2523 8.99293 15.3348 8.93546 15.4033 8.8633Z" fill="#142132"/>
</g>
<defs>
<clipPath id="clip0_202_467">
<rect width="16" height="9.41177" fill="white" transform="matrix(-1 0 0 -1 16 9.70361)"/>
</clipPath>
</defs>
</svg>
