<svg width="21" height="11" viewBox="0 0 21 11" fill="none" xmlns="http://www.w3.org/2000/svg">
<g clip-path="url(#clip0_202_76)">
<path fill-rule="evenodd" clip-rule="evenodd" d="M15.2431 2.10168L16.6675 3.58564C16.9721 3.90506 16.7441 4.42174 16.3013 4.42174H1.27422C0.717403 4.42174 0.440002 4.87133 0.440002 5.42406V5.41605C0.440002 5.96878 0.717403 6.42438 1.27422 6.42438H16.2862C16.731 6.42438 16.958 6.9641 16.6493 7.28151L15.233 8.74144C14.8497 9.13997 14.8669 9.77581 15.2734 10.1523L15.2754 10.1563C15.6769 10.5288 16.3063 10.5097 16.6846 10.1132L19.8894 6.77084C20.6267 5.99582 20.6227 4.78422 19.8823 4.0132L16.7058 0.730869C16.3285 0.33835 15.7041 0.319326 15.3037 0.688813L15.2936 0.698826C14.8881 1.07232 14.8659 1.70115 15.2431 2.10168Z" fill="url(#paint0_linear_202_76)" fill-opacity="0.9"/>
<path style="mix-blend-mode:soft-light" fill-rule="evenodd" clip-rule="evenodd" d="M15.2431 2.10168L16.6675 3.58564C16.9721 3.90506 16.7441 4.42174 16.3013 4.42174H1.27422C0.717403 4.42174 0.440002 4.87133 0.440002 5.42406V5.41605C0.440002 5.96878 0.717403 6.42438 1.27422 6.42438H16.2862C16.731 6.42438 16.958 6.9641 16.6493 7.28151L15.233 8.74144C14.8497 9.13997 14.8669 9.77581 15.2734 10.1523L15.2754 10.1563C15.6769 10.5288 16.3063 10.5097 16.6846 10.1132L19.8894 6.77084C20.6267 5.99582 20.6227 4.78422 19.8823 4.0132L16.7058 0.730869C16.3285 0.33835 15.7041 0.319326 15.3037 0.688813L15.2936 0.698826C14.8881 1.07232 14.8659 1.70115 15.2431 2.10168Z" fill="url(#paint1_radial_202_76)" fill-opacity="0.6"/>
</g>
<defs>
<linearGradient id="paint0_linear_202_76" x1="9.55566" y1="-3.44752" x2="4.11442" y2="9.62038" gradientUnits="userSpaceOnUse">
<stop stop-color="#9D9DF9"/>
<stop offset="1" stop-color="#1D45C2"/>
</linearGradient>
<radialGradient id="paint1_radial_202_76" cx="0" cy="0" r="1" gradientUnits="userSpaceOnUse" gradientTransform="translate(9.46541 1.85228) rotate(90) scale(5.00518 11.9028)">
<stop stop-color="white" stop-opacity="0.5"/>
<stop offset="1" stop-opacity="0.5"/>
</radialGradient>
<clipPath id="clip0_202_76">
<rect width="20" height="10" fill="white" transform="translate(0.440002 0.42363)"/>
</clipPath>
</defs>
</svg>
