<svg width="42" height="21" viewBox="0 0 42 21" fill="none" xmlns="http://www.w3.org/2000/svg">
<g clip-path="url(#clip0_202_62)">
<path opacity="0.2" d="M37.56 0.42363H4.56C2.35086 0.42363 0.559998 2.21449 0.559998 4.42363V16.4236C0.559998 18.6328 2.35086 20.4236 4.56 20.4236H37.56C39.7691 20.4236 41.56 18.6328 41.56 16.4236V4.42363C41.56 2.21449 39.7691 0.42363 37.56 0.42363Z" fill="#6576DB"/>
<path d="M15.2716 14.4236H13.2196L9.78763 9.22763V14.4236H7.73563V5.99963H9.78763L13.2196 11.2196V5.99963H15.2716V14.4236ZM18.8111 7.64363V9.34763H21.5591V10.9316H18.8111V12.7796H21.9191V14.4236H16.7591V5.99963H21.9191V7.64363H18.8111ZM34.8433 5.99963L32.6473 14.4236H30.1633L28.8193 8.87963L27.4273 14.4236H24.9433L22.8073 5.99963H25.0033L26.2153 12.1316L27.7153 5.99963H29.9713L31.4113 12.1316L32.6353 5.99963H34.8433Z" fill="url(#paint0_linear_202_62)" fill-opacity="0.9"/>
<path style="mix-blend-mode:soft-light" d="M15.2716 14.4236H13.2196L9.78763 9.22763V14.4236H7.73563V5.99963H9.78763L13.2196 11.2196V5.99963H15.2716V14.4236ZM18.8111 7.64363V9.34763H21.5591V10.9316H18.8111V12.7796H21.9191V14.4236H16.7591V5.99963H21.9191V7.64363H18.8111ZM34.8433 5.99963L32.6473 14.4236H30.1633L28.8193 8.87963L27.4273 14.4236H24.9433L22.8073 5.99963H25.0033L26.2153 12.1316L27.7153 5.99963H29.9713L31.4113 12.1316L32.6353 5.99963H34.8433Z" fill="url(#paint1_radial_202_62)" fill-opacity="0.6"/>
</g>
<defs>
<linearGradient id="paint0_linear_202_62" x1="19.7777" y1="-5.54444" x2="8.51932" y2="16.2366" gradientUnits="userSpaceOnUse">
<stop stop-color="#9D9DF9"/>
<stop offset="1" stop-color="#1D45C2"/>
</linearGradient>
<radialGradient id="paint1_radial_202_62" cx="0" cy="0" r="1" gradientUnits="userSpaceOnUse" gradientTransform="translate(19.6468 3.99521) rotate(90) scale(9.00932 17.259)">
<stop stop-color="white" stop-opacity="0.5"/>
<stop offset="1" stop-opacity="0.5"/>
</radialGradient>
<clipPath id="clip0_202_62">
<rect width="41" height="20" fill="white" transform="translate(0.559998 0.42363)"/>
</clipPath>
</defs>
</svg>
