<svg width="26" height="25" viewBox="0 0 26 25" fill="none" xmlns="http://www.w3.org/2000/svg">
<g clip-path="url(#clip0_1_102)">
<path d="M21.1915 4.43654C19.5851 3.70111 17.8893 3.17936 16.1473 2.88461C15.9088 3.31057 15.6934 3.75 15.5011 4.19807C13.6453 3.91923 11.7588 3.91923 9.90304 4.19807C9.71073 3.74904 9.49535 3.31057 9.25689 2.88461C7.51362 3.18269 5.8165 3.70481 4.20881 4.44038C1.0165 9.16346 0.151116 13.7692 0.583808 18.3096C2.45331 19.6909 4.54581 20.7413 6.77035 21.4154C7.27035 20.7423 7.71458 20.0269 8.09535 19.2788C7.37196 19.0086 6.67375 18.6753 6.00881 18.2827C6.18381 18.1558 6.35496 18.025 6.52035 17.8981C8.45515 18.808 10.5669 19.2797 12.705 19.2797C14.843 19.2797 16.9548 18.808 18.8896 17.8981C19.0569 18.0346 19.228 18.1654 19.4011 18.2827C18.7348 18.676 18.0357 19.0096 17.3107 19.2808C17.6915 20.0288 18.1348 20.7423 18.6357 21.4154C20.8622 20.744 22.9563 19.694 24.8261 18.3115C25.3338 13.0462 23.9588 8.48269 21.1915 4.43654ZM8.64342 15.5173C7.43765 15.5173 6.4415 14.4231 6.4415 13.0769C6.4415 11.7308 7.40304 10.6269 8.63958 10.6269C9.87612 10.6269 10.8646 11.7308 10.8434 13.0769C10.8223 14.4231 9.87227 15.5173 8.64342 15.5173ZM16.7665 15.5173C15.5588 15.5173 14.5665 14.4231 14.5665 13.0769C14.5665 11.7308 15.528 10.6269 16.7665 10.6269C18.005 10.6269 18.9857 11.7308 18.9646 13.0769C18.9434 14.4231 17.9953 15.5173 16.7665 15.5173Z" fill="#5865F2"/>
</g>
<defs>
<clipPath id="clip0_1_102">
<rect width="25" height="25" fill="white" transform="translate(0.47998)"/>
</clipPath>
</defs>
</svg>
