<svg width="21" height="21" viewBox="0 0 21 21" fill="none" xmlns="http://www.w3.org/2000/svg">
<g clip-path="url(#clip0_1_57)">
<path d="M19.36 10.05C19.36 8.26996 18.8321 6.5299 17.8432 5.04986C16.8543 3.56982 15.4487 2.41626 13.8041 1.73508C12.1596 1.05389 10.35 0.875657 8.60417 1.22292C6.85834 1.57019 5.25469 2.42736 3.99602 3.68603C2.73735 4.9447 1.88018 6.54835 1.53291 8.29418C1.18565 10.04 1.36388 11.8496 2.04507 13.4941C2.72625 15.1387 3.87981 16.5443 5.35985 17.5332C6.83989 18.5222 8.57995 19.05 10.36 19.05M1.95998 7.04999H18.76M1.95998 13.05H10.36" stroke="#6576DB" stroke-width="2" stroke-linecap="round" stroke-linejoin="round"/>
<path d="M9.93799 1.04999C8.25333 3.7496 7.36019 6.86785 7.36019 10.05C7.36019 13.2321 8.25333 16.3504 9.93799 19.05M10.86 1.04999C12.579 3.80499 13.36 6.92599 13.36 10.05M16.36 19.05V12.05M16.36 12.05L19.36 15.05M16.36 12.05L13.36 15.05" stroke="#6576DB" stroke-width="2" stroke-linecap="round" stroke-linejoin="round"/>
</g>
<defs>
<clipPath id="clip0_1_57">
<rect width="20" height="20" fill="white" transform="translate(0.359985 0.0499878)"/>
</clipPath>
</defs>
</svg>
