<svg width="20" height="20" viewBox="0 0 20 20" fill="none" xmlns="http://www.w3.org/2000/svg">
<g clip-path="url(#clip0_1_38)">
<path fill-rule="evenodd" clip-rule="evenodd" d="M18 8H2V3C2 2.448 2.337 2 2.889 2H6.244C6.43108 2 6.61441 2.05248 6.77315 2.15147C6.93189 2.25046 7.05968 2.392 7.142 2.56L8.278 4.88C8.44263 5.216 8.69821 5.49907 9.0157 5.69706C9.33318 5.89504 9.69984 6 10.074 6H16.889C17.441 6 18 6.448 18 7V8ZM18 17C18 17.552 17.441 18 16.889 18H2.889C2.337 18 2 17.552 2 17V10H18V17ZM17.889 4H11.125C10.7535 3.99999 10.3894 3.89651 10.0734 3.70116C9.75739 3.50581 9.50206 3.22631 9.336 2.894L8.442 1.106C8.27594 0.773686 8.02061 0.494191 7.70463 0.298842C7.38864 0.103493 7.02449 1.26149e-05 6.653 0L1.889 0C0.784 0 0 0.895 0 2V18C0 19.105 0.784 20 1.889 20H17.889C18.993 20 20 19.105 20 18V6C20 4.895 18.993 4 17.889 4Z" fill="#9EA0A5"/>
</g>
<defs>
<clipPath id="clip0_1_38">
<rect width="20" height="20" fill="white"/>
</clipPath>
</defs>
</svg>
