<svg width="21" height="21" viewBox="0 0 21 21" fill="none" xmlns="http://www.w3.org/2000/svg">
<g clip-path="url(#clip0_1_69)">
<path fill-rule="evenodd" clip-rule="evenodd" d="M20.64 10.05C20.64 15.573 16.163 20.05 10.64 20.05C5.11701 20.05 0.640015 15.573 0.640015 10.05C0.640015 4.52699 5.11701 0.0499878 10.64 0.0499878C16.163 0.0499878 20.64 4.52699 20.64 10.05ZM18.64 10.05C18.64 14.4685 15.0585 18.05 10.64 18.05C6.22151 18.05 2.64001 14.4685 2.64001 10.05C2.64001 5.63149 6.22151 2.04999 10.64 2.04999C15.0585 2.04999 18.64 5.63149 18.64 10.05ZM9.41801 16.562C9.54937 16.562 9.67943 16.536 9.80077 16.4858C9.92212 16.4355 10.0324 16.3617 10.1252 16.2688C10.2181 16.1759 10.2917 16.0657 10.342 15.9443C10.3922 15.8229 10.418 15.6928 10.418 15.5615C10.418 15.4301 10.3921 15.3001 10.3418 15.1787C10.2915 15.0574 10.2178 14.9471 10.1249 14.8543C10.032 14.7614 9.92168 14.6878 9.80031 14.6375C9.67894 14.5873 9.54887 14.5615 9.41751 14.5615C9.15223 14.5616 8.89784 14.667 8.7103 14.8546C8.52277 15.0423 8.41745 15.2967 8.41751 15.562C8.41758 15.8273 8.52303 16.0817 8.71066 16.2692C8.89829 16.4567 9.15273 16.5621 9.41801 16.562ZM7.41801 5.04999C7.1528 5.04999 6.89844 5.15534 6.71091 5.34288C6.52337 5.53042 6.41801 5.78477 6.41801 6.04999C6.41801 6.3152 6.52337 6.56956 6.71091 6.75709C6.89844 6.94463 7.1528 7.04999 7.41801 7.04999H11.418C11.6832 7.04999 11.9376 7.15534 12.1251 7.34288C12.3127 7.53042 12.418 7.78477 12.418 8.04999C12.418 8.3152 12.3127 8.56956 12.1251 8.75709C11.9376 8.94463 11.6832 9.04999 11.418 9.04999H10.418C9.94646 9.04999 9.49422 9.23731 9.16078 9.57075C8.82734 9.90419 8.64001 10.3564 8.64001 10.828V12.562C8.64001 12.8272 8.74537 13.0816 8.93291 13.2691C9.12044 13.4566 9.3748 13.562 9.64001 13.562C9.90523 13.562 10.1596 13.4566 10.3471 13.2691C10.5347 13.0816 10.64 12.8272 10.64 12.562V11.559C10.64 11.278 10.868 11.05 11.149 11.05H12.64C13.74 11.05 14.64 10.15 14.64 9.04999V6.56199C14.64 6.16098 14.4807 5.7764 14.1972 5.49284C13.9136 5.20929 13.529 5.04999 13.128 5.04999H7.41801Z" fill="#9EA0A5"/>
</g>
<defs>
<clipPath id="clip0_1_69">
<rect width="20" height="20" fill="white" transform="translate(0.640015 0.0499878)"/>
</clipPath>
</defs>
</svg>
