<svg width="61" height="61" viewBox="0 0 61 61" fill="none" xmlns="http://www.w3.org/2000/svg">
<path fill-rule="evenodd" clip-rule="evenodd" d="M50.5 48.45C50.5 49.1131 50.2366 49.7489 49.7678 50.2178C49.2989 50.6866 48.663 50.95 48 50.95H13C12.3369 50.95 11.7011 50.6866 11.2322 50.2178C10.7634 49.7489 10.5 49.1131 10.5 48.45V13.45C10.5 12.787 10.7634 12.1511 11.2322 11.6822C11.7011 11.2134 12.3369 10.95 13 10.95H35.5V20.95C35.5 22.2761 36.0268 23.5479 36.9645 24.4855C37.9021 25.4232 39.1739 25.95 40.5 25.95H50.5V48.45ZM54.767 20.218L41.233 6.68301C41.0009 6.45061 40.7253 6.26625 40.422 6.14047C40.1186 6.01469 39.7934 5.94997 39.465 5.95001H10.5C7.73698 5.95001 5.49998 8.18801 5.49998 10.95V50.95C5.49998 52.2761 6.02677 53.5479 6.96445 54.4855C7.90213 55.4232 9.1739 55.95 10.5 55.95H50.5C51.8261 55.95 53.0978 55.4232 54.0355 54.4855C54.9732 53.5479 55.5 52.2761 55.5 50.95V21.986C55.5 21.324 55.237 20.688 54.767 20.218Z" fill="#6576DB"/>
<path d="M29.914 36.204V51.559H24.93V36.204C24.93 35.106 23.78 34.541 22.986 35.294L20.663 37.649C20.426 37.8741 20.1464 38.0497 19.8408 38.1656C19.5351 38.2815 19.2094 38.3352 18.8827 38.3238C18.556 38.3123 18.2348 38.2359 17.938 38.0989C17.6412 37.9619 17.3747 37.7672 17.154 37.526C16.7145 37.0481 16.4801 36.4168 16.5012 35.7679C16.5223 35.119 16.7973 34.5043 17.267 34.056L24.312 27.329C25.2341 26.4465 26.4605 25.9528 27.7369 25.9504C29.0132 25.948 30.2415 26.437 31.167 27.316L38.25 34.036C38.7249 34.4884 39.001 35.1107 39.0179 35.7664C39.0348 36.4221 38.791 37.0577 38.34 37.534L38.285 37.571C37.8285 38.0486 37.202 38.3267 36.5416 38.3451C35.8812 38.3634 35.2403 38.1205 34.758 37.669L32.174 35.296C31.379 34.541 29.914 35.106 29.914 36.204Z" fill="#6576DB"/>
</svg>
