<svg width="20" height="20" viewBox="0 0 20 20" fill="none" xmlns="http://www.w3.org/2000/svg">
<g clip-path="url(#clip0_1_23)">
<path fill-rule="evenodd" clip-rule="evenodd" d="M13.98 0H0V10H2V2H12V8H18V10H20V6.439L13.98 0ZM4 15.105C4 14.8398 3.89464 14.5854 3.70711 14.3979C3.51957 14.2104 3.26522 14.105 3 14.105H2V16.105H3C3.26522 16.105 3.51957 15.9996 3.70711 15.8121C3.89464 15.6246 4 15.3702 4 15.105ZM6 15.001C6 15.7966 5.68393 16.5597 5.12132 17.1223C4.55871 17.6849 3.79565 18.001 3 18.001H2V20.001H0V12.001H3C3.79565 12.001 4.55871 12.3171 5.12132 12.8797C5.68393 13.4423 6 14.2054 6 15.001ZM11 15.105C11 14.552 10.552 14.001 10 14.001H9V18.001H10C10.552 18.001 11 17.657 11 17.105V15.105ZM13 15.001V17.001C13 17.7966 12.6839 18.5597 12.1213 19.1223C11.5587 19.6849 10.7956 20.001 10 20.001H7V12.001H10C11.65 12.001 13 13.351 13 15.001ZM20 12.001V14.001H16V16.001H20V18.001H16V20.001H14V12.001H20Z" fill="#9EA0A5"/>
</g>
<defs>
<clipPath id="clip0_1_23">
<rect width="20" height="20" fill="white"/>
</clipPath>
</defs>
</svg>
